<?xml version="1.0" encoding="UTF-8" standalone="no"?><svg xmlns="http://www.w3.org/2000/svg" xmlns:xlink="http://www.w3.org/1999/xlink" contentScriptType="application/ecmascript" contentStyleType="text/css" height="975px" preserveAspectRatio="none" style="width:619px;height:975px;" version="1.1" viewBox="0 0 619 975" width="619px" zoomAndPan="magnify"><defs><filter height="300%" id="f62jhqlqgscfn" width="300%" x="-1" y="-1"><feGaussianBlur result="blurOut" stdDeviation="2.0"/><feColorMatrix in="blurOut" result="blurOut2" type="matrix" values="0 0 0 0 0 0 0 0 0 0 0 0 0 0 0 0 0 0 .4 0"/><feOffset dx="4.0" dy="4.0" in="blurOut2" result="blurOut3"/><feBlend in="SourceGraphic" in2="blurOut3" mode="normal"/></filter></defs><g><ellipse cx="309.5" cy="20" fill="#000000" filter="url(#f62jhqlqgscfn)" rx="10" ry="10" style="stroke: none; stroke-width: 1.0;"/><rect fill="#FEFECE" filter="url(#f62jhqlqgscfn)" height="48.1759" rx="12.5" ry="12.5" style="stroke: #A80036; stroke-width: 1.5;" width="218" x="200.5" y="50"/><text fill="#000000" font-family="Raleway" font-size="24" lengthAdjust="spacingAndGlyphs" textLength="198" x="210.5" y="82.5599">Code code code...</text><rect fill="#FEFECE" filter="url(#f62jhqlqgscfn)" height="48.1759" rx="12.5" ry="12.5" style="stroke: #A80036; stroke-width: 1.5;" width="274" x="172.5" y="118.1759"/><text fill="#000000" font-family="Raleway" font-size="24" lengthAdjust="spacingAndGlyphs" textLength="254" x="182.5" y="150.7358">Ouvrir une pull request</text><ellipse cx="309.5" cy="196.3518" fill="#FEFECE" filter="url(#f62jhqlqgscfn)" rx="10" ry="10" style="stroke: #A80036; stroke-width: 1.5;"/><path d="M308.9219,186.055 L310.3281,186.055 L317.4063,203.1018 L315.6406,203.1018 L313.4219,197.7737 L305.7656,197.7737 L303.5938,203.1018 L301.7813,203.1018 L308.9219,186.055 Z M313.0469,196.4612 L309.6094,188.0237 L306.125,196.4612 L313.0469,196.4612 Z "/><rect fill="#FEFECE" filter="url(#f62jhqlqgscfn)" height="48.1759" rx="12.5" ry="12.5" style="stroke: #A80036; stroke-width: 1.5;" width="179" x="220" y="226.3518"/><text fill="#000000" font-family="Raleway" font-size="24" lengthAdjust="spacingAndGlyphs" textLength="159" x="230" y="258.9118">Relire le code &#128064;</text><polygon fill="#FEFECE" filter="url(#f62jhqlqgscfn)" points="230.5,302.7317,388.5,302.7317,400.5,316.8197,388.5,330.9076,230.5,330.9076,218.5,316.8197,230.5,302.7317" style="stroke: #A80036; stroke-width: 1.5;"/><text fill="#000000" font-family="Raleway" font-size="24" lengthAdjust="spacingAndGlyphs" textLength="158" x="230.5" y="325.2916">PR acceptée ?</text><text fill="#000000" font-family="Raleway" font-size="24" lengthAdjust="spacingAndGlyphs" textLength="33" x="185.5" y="311.2037">oui</text><text fill="#000000" font-family="Raleway" font-size="24" lengthAdjust="spacingAndGlyphs" textLength="42" x="400.5" y="311.2037">non</text><rect fill="#FEFECE" filter="url(#f62jhqlqgscfn)" height="48.1759" rx="12.5" ry="12.5" style="stroke: #A80036; stroke-width: 1.5;" width="290" x="10" y="340.9076"/><text fill="#000000" font-family="Raleway" font-size="24" lengthAdjust="spacingAndGlyphs" textLength="270" x="20" y="373.4675">Changements acceptés &#128170;</text><rect fill="#FEFECE" filter="url(#f62jhqlqgscfn)" height="48.1759" rx="12.5" ry="12.5" style="stroke: #A80036; stroke-width: 1.5;" width="270" x="329" y="340.9076"/><text fill="#000000" font-family="Raleway" font-size="24" lengthAdjust="spacingAndGlyphs" textLength="250" x="339" y="373.4675">Changements refusés &#128546;</text><rect fill="#FEFECE" filter="url(#f62jhqlqgscfn)" height="48.1759" rx="12.5" ry="12.5" style="stroke: #A80036; stroke-width: 1.5;" width="288" x="320" y="409.0835"/><text fill="#000000" font-family="Raleway" font-size="24" lengthAdjust="spacingAndGlyphs" textLength="268" x="330" y="441.6435">Recommencer à coder...</text><ellipse cx="464" cy="487.2594" fill="#FEFECE" filter="url(#f62jhqlqgscfn)" rx="10" ry="10" style="stroke: #A80036; stroke-width: 1.5;"/><path d="M463.4219,476.9626 L464.8281,476.9626 L471.9063,494.0094 L470.1406,494.0094 L467.9219,488.6813 L460.2656,488.6813 L458.0938,494.0094 L456.2813,494.0094 L463.4219,476.9626 Z M467.5469,487.3688 L464.1094,478.9313 L460.625,487.3688 L467.5469,487.3688 Z "/><rect fill="#FEFECE" filter="url(#f62jhqlqgscfn)" height="48.1759" rx="12.5" ry="12.5" style="stroke: #A80036; stroke-width: 1.5;" width="126" x="246.5" y="517.2594"/><text fill="#000000" font-family="Raleway" font-size="24" lengthAdjust="spacingAndGlyphs" textLength="106" x="256.5" y="549.8194">Lint, tests</text><polygon fill="#FEFECE" filter="url(#f62jhqlqgscfn)" points="251,593.6393,368,593.6393,380,607.7273,368,621.8152,251,621.8152,239,607.7273,251,593.6393" style="stroke: #A80036; stroke-width: 1.5;"/><text fill="#000000" font-family="Raleway" font-size="24" lengthAdjust="spacingAndGlyphs" textLength="117" x="251" y="616.1992">Tests OK ?</text><text fill="#000000" font-family="Raleway" font-size="24" lengthAdjust="spacingAndGlyphs" textLength="33" x="206" y="602.1113">oui</text><text fill="#000000" font-family="Raleway" font-size="24" lengthAdjust="spacingAndGlyphs" textLength="42" x="380" y="602.1113">non</text><rect fill="#FEFECE" filter="url(#f62jhqlqgscfn)" height="48.1759" rx="12.5" ry="12.5" style="stroke: #A80036; stroke-width: 1.5;" width="160" x="107.5" y="631.8152"/><text fill="#000000" font-family="Raleway" font-size="24" lengthAdjust="spacingAndGlyphs" textLength="140" x="117.5" y="664.3752">Tests verts ! ✔</text><rect fill="#FEFECE" filter="url(#f62jhqlqgscfn)" height="48.1759" rx="12.5" ry="12.5" style="stroke: #A80036; stroke-width: 1.5;" width="158" x="352.5" y="631.8152"/><text fill="#000000" font-family="Raleway" font-size="24" lengthAdjust="spacingAndGlyphs" textLength="138" x="362.5" y="664.3752">Tests rouge &#128545;</text><rect fill="#FEFECE" filter="url(#f62jhqlqgscfn)" height="48.1759" rx="12.5" ry="12.5" style="stroke: #A80036; stroke-width: 1.5;" width="288" x="287.5" y="699.9911"/><text fill="#000000" font-family="Raleway" font-size="24" lengthAdjust="spacingAndGlyphs" textLength="268" x="297.5" y="732.5511">Recommencer à coder...</text><ellipse cx="431.5" cy="778.1671" fill="#FEFECE" filter="url(#f62jhqlqgscfn)" rx="10" ry="10" style="stroke: #A80036; stroke-width: 1.5;"/><path d="M430.9219,767.8702 L432.3281,767.8702 L439.4063,784.9171 L437.6406,784.9171 L435.4219,779.5889 L427.7656,779.5889 L425.5938,784.9171 L423.7813,784.9171 L430.9219,767.8702 Z M435.0469,778.2764 L431.6094,769.8389 L428.125,778.2764 L435.0469,778.2764 Z "/><rect fill="#FEFECE" filter="url(#f62jhqlqgscfn)" height="48.1759" rx="12.5" ry="12.5" style="stroke: #A80036; stroke-width: 1.5;" width="373" x="123" y="808.1671"/><text fill="#000000" font-family="Raleway" font-size="24" lengthAdjust="spacingAndGlyphs" textLength="353" x="133" y="840.727">Construction de l'image Docker &#128011;</text><rect fill="#FEFECE" filter="url(#f62jhqlqgscfn)" height="48.1759" rx="12.5" ry="12.5" style="stroke: #A80036; stroke-width: 1.5;" width="401" x="109" y="876.343"/><text fill="#000000" font-family="Raleway" font-size="24" lengthAdjust="spacingAndGlyphs" textLength="381" x="119" y="908.9029">Déploiement en (pré-)production ! &#128640;</text><ellipse cx="309.5" cy="954.5189" fill="#FFFFFF" filter="url(#f62jhqlqgscfn)" rx="10" ry="10" style="stroke: #000000; stroke-width: 1.5;"/><line style="stroke: #000000; stroke-width: 2.5;" x1="303.3128" x2="315.6872" y1="948.3317" y2="960.7061"/><line style="stroke: #000000; stroke-width: 2.5;" x1="315.6872" x2="303.3128" y1="948.3317" y2="960.7061"/><line style="stroke: #A80036; stroke-width: 1.5;" x1="309.5" x2="309.5" y1="30" y2="50"/><polygon fill="#A80036" points="305.5,40,309.5,50,313.5,40,309.5,44" style="stroke: #A80036; stroke-width: 1.0;"/><line style="stroke: #A80036; stroke-width: 1.5;" x1="309.5" x2="309.5" y1="98.1759" y2="118.1759"/><polygon fill="#A80036" points="305.5,108.1759,309.5,118.1759,313.5,108.1759,309.5,112.1759" style="stroke: #A80036; stroke-width: 1.0;"/><line style="stroke: #A80036; stroke-width: 1.5;" x1="309.5" x2="309.5" y1="166.3518" y2="186.3518"/><polygon fill="#A80036" points="305.5,176.3518,309.5,186.3518,313.5,176.3518,309.5,180.3518" style="stroke: #A80036; stroke-width: 1.0;"/><line style="stroke: #A80036; stroke-width: 1.5;" x1="309.5" x2="309.5" y1="206.3518" y2="226.3518"/><polygon fill="#A80036" points="305.5,216.3518,309.5,226.3518,313.5,216.3518,309.5,220.3518" style="stroke: #A80036; stroke-width: 1.0;"/><line style="stroke: #A80036; stroke-width: 1.5;" x1="464" x2="464" y1="389.0835" y2="409.0835"/><polygon fill="#A80036" points="460,399.0835,464,409.0835,468,399.0835,464,403.0835" style="stroke: #A80036; stroke-width: 1.0;"/><line style="stroke: #A80036; stroke-width: 1.5;" x1="464" x2="464" y1="457.2594" y2="477.2594"/><polygon fill="#A80036" points="460,467.2594,464,477.2594,468,467.2594,464,471.2594" style="stroke: #A80036; stroke-width: 1.0;"/><line style="stroke: #A80036; stroke-width: 1.5;" x1="218.5" x2="155" y1="316.8197" y2="316.8197"/><line style="stroke: #A80036; stroke-width: 1.5;" x1="155" x2="155" y1="316.8197" y2="340.9076"/><polygon fill="#A80036" points="151,330.9076,155,340.9076,159,330.9076,155,334.9076" style="stroke: #A80036; stroke-width: 1.0;"/><line style="stroke: #A80036; stroke-width: 1.5;" x1="400.5" x2="464" y1="316.8197" y2="316.8197"/><line style="stroke: #A80036; stroke-width: 1.5;" x1="464" x2="464" y1="316.8197" y2="340.9076"/><polygon fill="#A80036" points="460,330.9076,464,340.9076,468,330.9076,464,334.9076" style="stroke: #A80036; stroke-width: 1.0;"/><line style="stroke: #A80036; stroke-width: 1.5;" x1="155" x2="155" y1="389.0835" y2="502.2594"/><line style="stroke: #A80036; stroke-width: 1.5;" x1="155" x2="309.5" y1="502.2594" y2="502.2594"/><line style="stroke: #A80036; stroke-width: 1.5;" x1="309.5" x2="309.5" y1="502.2594" y2="517.2594"/><polygon fill="#A80036" points="305.5,507.2594,309.5,517.2594,313.5,507.2594,309.5,511.2594" style="stroke: #A80036; stroke-width: 1.0;"/><line style="stroke: #A80036; stroke-width: 1.5;" x1="309.5" x2="309.5" y1="274.5278" y2="302.7317"/><polygon fill="#A80036" points="305.5,292.7317,309.5,302.7317,313.5,292.7317,309.5,296.7317" style="stroke: #A80036; stroke-width: 1.0;"/><line style="stroke: #A80036; stroke-width: 1.5;" x1="431.5" x2="431.5" y1="679.9911" y2="699.9911"/><polygon fill="#A80036" points="427.5,689.9911,431.5,699.9911,435.5,689.9911,431.5,693.9911" style="stroke: #A80036; stroke-width: 1.0;"/><line style="stroke: #A80036; stroke-width: 1.5;" x1="431.5" x2="431.5" y1="748.1671" y2="768.1671"/><polygon fill="#A80036" points="427.5,758.1671,431.5,768.1671,435.5,758.1671,431.5,762.1671" style="stroke: #A80036; stroke-width: 1.0;"/><line style="stroke: #A80036; stroke-width: 1.5;" x1="239" x2="187.5" y1="607.7273" y2="607.7273"/><line style="stroke: #A80036; stroke-width: 1.5;" x1="187.5" x2="187.5" y1="607.7273" y2="631.8152"/><polygon fill="#A80036" points="183.5,621.8152,187.5,631.8152,191.5,621.8152,187.5,625.8152" style="stroke: #A80036; stroke-width: 1.0;"/><line style="stroke: #A80036; stroke-width: 1.5;" x1="380" x2="431.5" y1="607.7273" y2="607.7273"/><line style="stroke: #A80036; stroke-width: 1.5;" x1="431.5" x2="431.5" y1="607.7273" y2="631.8152"/><polygon fill="#A80036" points="427.5,621.8152,431.5,631.8152,435.5,621.8152,431.5,625.8152" style="stroke: #A80036; stroke-width: 1.0;"/><line style="stroke: #A80036; stroke-width: 1.5;" x1="187.5" x2="187.5" y1="679.9911" y2="793.1671"/><line style="stroke: #A80036; stroke-width: 1.5;" x1="187.5" x2="309.5" y1="793.1671" y2="793.1671"/><line style="stroke: #A80036; stroke-width: 1.5;" x1="309.5" x2="309.5" y1="793.1671" y2="808.1671"/><polygon fill="#A80036" points="305.5,798.1671,309.5,808.1671,313.5,798.1671,309.5,802.1671" style="stroke: #A80036; stroke-width: 1.0;"/><line style="stroke: #A80036; stroke-width: 1.5;" x1="309.5" x2="309.5" y1="565.4354" y2="593.6393"/><polygon fill="#A80036" points="305.5,583.6393,309.5,593.6393,313.5,583.6393,309.5,587.6393" style="stroke: #A80036; stroke-width: 1.0;"/><line style="stroke: #A80036; stroke-width: 1.5;" x1="309.5" x2="309.5" y1="856.343" y2="876.343"/><polygon fill="#A80036" points="305.5,866.343,309.5,876.343,313.5,866.343,309.5,870.343" style="stroke: #A80036; stroke-width: 1.0;"/><line style="stroke: #A80036; stroke-width: 1.5;" x1="309.5" x2="309.5" y1="924.5189" y2="944.5189"/><polygon fill="#A80036" points="305.5,934.5189,309.5,944.5189,313.5,934.5189,309.5,938.5189" style="stroke: #A80036; stroke-width: 1.0;"/><!--
@startuml
skinparamlocked backgroundcolor transparent
skinparamlocked backgroundcolor transparent
skinparamlocked defaultFontSize 24
skinparamlocked defaultFontName Raleway

start

:Code code code...;
:Ouvrir une pull request;
(A)
:Relire le code 👀;
if (PR acceptée ?) then (oui)
  :Changements acceptés 💪;
else (non)
  :Changements refusés 😢;
  :Recommencer à coder...;
  (A)
  detach
endif

:Lint, tests;
if (Tests OK ?) then (oui)
  :Tests verts ! ✔;
else (non)
  :Tests rouge 😡;
  :Recommencer à coder...;
  (A)
  detach
endif

:Construction de l'image Docker 🐋;
:Déploiement en (pré-)production ! 🚀;

end

@enduml

PlantUML version 1.2018.10(Sat Aug 25 17:02:59 GMT 2018)
(GPL source distribution)
Java Runtime: OpenJDK Runtime Environment
JVM: OpenJDK 64-Bit Server VM
Java Version: 1.8.0_181-b13
Operating System: Linux
OS Version: 4.20.3-arch1-1-ARCH
Default Encoding: UTF-8
Language: en
Country: US
--></g></svg>